<svg width="171" height="171" viewBox="0 0 171 171" fill="none" xmlns="http://www.w3.org/2000/svg">
<rect width="171" height="171" rx="30" fill="black"/>
<path d="M54.4229 52.8369C55.126 52.8369 55.668 52.9688 56.0488 53.2324C56.4297 53.4668 56.708 53.9062 56.8838 54.5508C57.0889 55.1953 57.1914 56.1328 57.1914 57.3633C57.1914 58.5938 57.0889 59.5312 56.8838 60.1758C56.708 60.8203 56.4297 61.2598 56.0488 61.4941C55.668 61.7285 55.126 61.8457 54.4229 61.8457H44.8428V95.5518H60.2676V81.8408C60.2676 80.8447 60.707 80.1416 61.5859 79.7314C62.4941 79.292 63.9883 79.0723 66.0684 79.0723C67.4453 79.0723 68.5 79.1748 69.2324 79.3799C69.9941 79.5557 70.5215 79.834 70.8145 80.2148C71.1074 80.5957 71.2539 81.1377 71.2539 81.8408V102.144C71.2539 103.14 71.0342 103.872 70.5947 104.341C70.1553 104.78 69.4229 105 68.3975 105H27.4404C26.7373 105 26.1953 104.883 25.8145 104.648C25.4336 104.414 25.1406 103.975 24.9355 103.33C24.7598 102.686 24.6719 101.748 24.6719 100.518C24.6719 99.2871 24.7598 98.3496 24.9355 97.7051C25.1406 97.0605 25.4336 96.6211 25.8145 96.3867C26.1953 96.123 26.7373 95.9912 27.4404 95.9912H33.8564V61.8457H27.4404C26.7373 61.8457 26.1953 61.7285 25.8145 61.4941C25.4336 61.2598 25.1406 60.8203 24.9355 60.1758C24.7598 59.5312 24.6719 58.5938 24.6719 57.3633C24.6719 56.1328 24.7598 55.1953 24.9355 54.5508C25.1406 53.9062 25.4336 53.4668 25.8145 53.2324C26.1953 52.9688 26.7373 52.8369 27.4404 52.8369H54.4229ZM143.878 52.8369C144.581 52.8369 145.123 52.9688 145.504 53.2324C145.885 53.4668 146.163 53.9062 146.339 54.5508C146.544 55.1953 146.646 56.1328 146.646 57.3633C146.646 58.5938 146.544 59.5312 146.339 60.1758C146.163 60.8203 145.885 61.2598 145.504 61.4941C145.123 61.7285 144.581 61.8457 143.878 61.8457H141.505L142.12 95.9912H144.757C145.46 95.9912 146.002 96.123 146.383 96.3867C146.764 96.6211 147.042 97.0605 147.218 97.7051C147.423 98.3496 147.525 99.2871 147.525 100.518C147.525 101.748 147.423 102.686 147.218 103.33C147.042 103.975 146.764 104.414 146.383 104.648C146.002 104.883 145.46 105 144.757 105H128.321C127.618 105 127.076 104.883 126.695 104.648C126.314 104.414 126.021 103.975 125.816 103.33C125.641 102.686 125.553 101.748 125.553 100.518C125.553 99.2871 125.641 98.3496 125.816 97.7051C126.021 97.0605 126.314 96.6211 126.695 96.3867C127.076 96.123 127.618 95.9912 128.321 95.9912H132.364L132.101 69.9756L125.465 87.9053C125.084 88.9307 124.557 89.6631 123.883 90.1025C123.209 90.5127 122.257 90.7178 121.026 90.7178C119.767 90.7178 118.8 90.5127 118.126 90.1025C117.452 89.6631 116.91 88.9307 116.5 87.9053L109.82 70.1074L109.557 95.9912H113.644C114.347 95.9912 114.889 96.123 115.27 96.3867C115.65 96.6211 115.929 97.0605 116.104 97.7051C116.31 98.3496 116.412 99.2871 116.412 100.518C116.412 101.748 116.31 102.686 116.104 103.33C115.929 103.975 115.65 104.414 115.27 104.648C114.889 104.883 114.347 105 113.644 105H97.208C96.5049 105 95.9629 104.883 95.582 104.648C95.2012 104.414 94.9082 103.975 94.7031 103.33C94.5273 102.686 94.4395 101.748 94.4395 100.518C94.4395 99.2871 94.5273 98.3496 94.7031 97.7051C94.9082 97.0605 95.2012 96.6211 95.582 96.3867C95.9629 96.123 96.5049 95.9912 97.208 95.9912H99.8008L100.46 61.8457H98.0869C97.3838 61.8457 96.8418 61.7285 96.4609 61.4941C96.0801 61.2598 95.7871 60.8203 95.582 60.1758C95.4062 59.5312 95.3184 58.5938 95.3184 57.3633C95.3184 56.1328 95.4062 55.1953 95.582 54.5508C95.7871 53.9062 96.0801 53.4668 96.4609 53.2324C96.8418 52.9688 97.3838 52.8369 98.0869 52.8369H110.567C111.183 52.8369 111.681 52.9395 112.062 53.1445C112.472 53.3496 112.765 53.7012 112.94 54.1992L120.982 75.7764L128.98 54.1992C129.156 53.7012 129.435 53.3496 129.815 53.1445C130.226 52.9395 130.738 52.8369 131.354 52.8369H143.878Z" fill="white"/>
</svg>
