<svg width="360" height="96" viewBox="0 0 360 96" fill="none" xmlns="http://www.w3.org/2000/svg">
<rect x="1.5" y="1.5" width="357" height="93" rx="14.5" stroke="black" stroke-width="3"/>
<rect x="9" y="8" width="148" height="80" rx="8" fill="black"/>
<path d="M33.9824 56V36.008H36.5024V53.76H45.2384V56H33.9824ZM72.41 56L70.002 49.812H62.078L59.698 56H57.15L64.962 35.924H67.23L75.014 56H72.41ZM67.006 41.524C66.95 41.3747 66.8567 41.104 66.726 40.712C66.5953 40.32 66.4647 39.9187 66.334 39.508C66.222 39.0787 66.1287 38.752 66.054 38.528C65.9607 38.9013 65.858 39.284 65.746 39.676C65.6527 40.0493 65.55 40.3947 65.438 40.712C65.3447 41.0293 65.2607 41.3 65.186 41.524L62.918 47.572H69.246L67.006 41.524ZM94.4648 36.008C96.1261 36.008 97.4888 36.2227 98.5528 36.652C99.6355 37.0627 100.438 37.688 100.961 38.528C101.483 39.368 101.745 40.4227 101.745 41.692C101.745 42.756 101.549 43.6427 101.157 44.352C100.765 45.0613 100.261 45.6307 99.6448 46.06C99.0475 46.4707 98.4128 46.7973 97.7408 47.04L103.229 56H100.289L95.4448 47.74H91.4688V56H88.9488V36.008H94.4648ZM94.3248 38.192H91.4688V45.612H94.4648C95.5475 45.612 96.4341 45.472 97.1248 45.192C97.8155 44.8933 98.3195 44.464 98.6368 43.904C98.9728 43.344 99.1408 42.644 99.1408 41.804C99.1408 40.9267 98.9635 40.2267 98.6088 39.704C98.2728 39.1813 97.7501 38.7987 97.0408 38.556C96.3315 38.3133 95.4261 38.192 94.3248 38.192ZM130.111 56L127.703 49.812H119.779L117.399 56H114.851L122.663 35.924H124.931L132.715 56H130.111ZM124.707 41.524C124.651 41.3747 124.557 41.104 124.427 40.712C124.296 40.32 124.165 39.9187 124.035 39.508C123.923 39.0787 123.829 38.752 123.755 38.528C123.661 38.9013 123.559 39.284 123.447 39.676C123.353 40.0493 123.251 40.3947 123.139 40.712C123.045 41.0293 122.961 41.3 122.887 41.524L120.619 47.572H126.947L124.707 41.524Z" fill="white"/>
<path d="M189.215 33.8164C189.527 33.8164 189.768 33.875 189.938 33.9922C190.107 34.0964 190.23 34.2917 190.309 34.5781C190.4 34.8646 190.445 35.2812 190.445 35.8281C190.445 36.375 190.4 36.7917 190.309 37.0781C190.23 37.3646 190.107 37.5599 189.938 37.6641C189.768 37.7682 189.527 37.8203 189.215 37.8203H188.16L188.434 52.9961H189.605C189.918 52.9961 190.159 53.0547 190.328 53.1719C190.497 53.276 190.621 53.4714 190.699 53.7578C190.79 54.0443 190.836 54.4609 190.836 55.0078C190.836 55.5547 190.79 55.9714 190.699 56.2578C190.621 56.5443 190.497 56.7396 190.328 56.8438C190.159 56.9479 189.918 57 189.605 57H182.301C181.988 57 181.747 56.9479 181.578 56.8438C181.409 56.7396 181.279 56.5443 181.188 56.2578C181.109 55.9714 181.07 55.5547 181.07 55.0078C181.07 54.4609 181.109 54.0443 181.188 53.7578C181.279 53.4714 181.409 53.276 181.578 53.1719C181.747 53.0547 181.988 52.9961 182.301 52.9961H184.098L183.98 41.4336L181.031 49.4023C180.862 49.8581 180.628 50.1836 180.328 50.3789C180.029 50.5612 179.605 50.6523 179.059 50.6523C178.499 50.6523 178.069 50.5612 177.77 50.3789C177.47 50.1836 177.229 49.8581 177.047 49.4023L174.078 41.4922L173.961 52.9961H175.777C176.09 52.9961 176.331 53.0547 176.5 53.1719C176.669 53.276 176.793 53.4714 176.871 53.7578C176.962 54.0443 177.008 54.4609 177.008 55.0078C177.008 55.5547 176.962 55.9714 176.871 56.2578C176.793 56.5443 176.669 56.7396 176.5 56.8438C176.331 56.9479 176.09 57 175.777 57H168.473C168.16 57 167.919 56.9479 167.75 56.8438C167.581 56.7396 167.451 56.5443 167.359 56.2578C167.281 55.9714 167.242 55.5547 167.242 55.0078C167.242 54.4609 167.281 54.0443 167.359 53.7578C167.451 53.4714 167.581 53.276 167.75 53.1719C167.919 53.0547 168.16 52.9961 168.473 52.9961H169.625L169.918 37.8203H168.863C168.551 37.8203 168.31 37.7682 168.141 37.6641C167.971 37.5599 167.841 37.3646 167.75 37.0781C167.672 36.7917 167.633 36.375 167.633 35.8281C167.633 35.2812 167.672 34.8646 167.75 34.5781C167.841 34.2917 167.971 34.0964 168.141 33.9922C168.31 33.875 168.551 33.8164 168.863 33.8164H174.41C174.684 33.8164 174.905 33.862 175.074 33.9531C175.257 34.0443 175.387 34.2005 175.465 34.4219L179.039 44.0117L182.594 34.4219C182.672 34.2005 182.796 34.0443 182.965 33.9531C183.147 33.862 183.375 33.8164 183.648 33.8164H189.215ZM212.645 33.8164C213.165 33.8164 213.589 33.9206 213.914 34.1289C214.24 34.3242 214.474 34.6432 214.617 35.0859L220.281 52.9961H221.98C222.293 52.9961 222.534 53.0482 222.703 53.1523C222.872 53.2565 222.996 53.4518 223.074 53.7383C223.165 54.0247 223.211 54.4414 223.211 54.9883C223.211 55.5352 223.165 55.9518 223.074 56.2383C222.996 56.5247 222.872 56.7266 222.703 56.8438C222.534 56.9479 222.293 57 221.98 57H213.699C213.387 57 213.146 56.9479 212.977 56.8438C212.807 56.7266 212.677 56.5247 212.586 56.2383C212.508 55.9518 212.469 55.5352 212.469 54.9883C212.469 54.4414 212.508 54.0247 212.586 53.7383C212.677 53.4518 212.807 53.2565 212.977 53.1523C213.146 53.0482 213.387 52.9961 213.699 52.9961H215.379L214.5 50.1641H207.391L206.512 52.9961H207.957C208.27 52.9961 208.51 53.0482 208.68 53.1523C208.849 53.2565 208.973 53.4518 209.051 53.7383C209.142 54.0247 209.188 54.4414 209.188 54.9883C209.188 55.5352 209.142 55.9518 209.051 56.2383C208.973 56.5247 208.849 56.7266 208.68 56.8438C208.51 56.9479 208.27 57 207.957 57H200.066C199.754 57 199.513 56.9479 199.344 56.8438C199.174 56.7266 199.051 56.5247 198.973 56.2383C198.882 55.9518 198.836 55.5352 198.836 54.9883C198.836 54.4414 198.882 54.0247 198.973 53.7383C199.051 53.4518 199.174 53.2565 199.344 53.1523C199.513 53.0482 199.754 52.9961 200.066 52.9961H201.707L206.648 37.8203H203.387C203.074 37.8203 202.833 37.7682 202.664 37.6641C202.495 37.5469 202.365 37.3451 202.273 37.0586C202.195 36.7721 202.156 36.3555 202.156 35.8086C202.156 35.2617 202.195 34.8451 202.273 34.5586C202.365 34.2721 202.495 34.0768 202.664 33.9727C202.833 33.8685 203.074 33.8164 203.387 33.8164H212.645ZM210.926 37.8203L208.523 46.1602H213.387L211.043 37.8203H210.926ZM248.906 33.3867C249.74 33.3867 250.332 33.4844 250.684 33.6797C251.035 33.862 251.211 34.1745 251.211 34.6172V39.9688C251.211 40.4115 251.068 40.7305 250.781 40.9258C250.508 41.1081 250.052 41.1992 249.414 41.1992C248.984 41.1992 248.646 41.1471 248.398 41.043C248.151 40.9388 247.956 40.7826 247.812 40.5742C247.201 39.6107 246.413 38.8685 245.449 38.3477C244.486 37.8138 243.372 37.5469 242.109 37.5469C241.159 37.5469 240.41 37.7878 239.863 38.2695C239.329 38.7513 239.062 39.3763 239.062 40.1445C239.062 40.5221 239.18 40.8346 239.414 41.082C239.648 41.3164 239.987 41.5247 240.43 41.707C241.003 41.9284 241.986 42.1562 243.379 42.3906C244.733 42.651 245.84 42.8984 246.699 43.1328C247.559 43.3542 248.366 43.6992 249.121 44.168C251.204 45.431 252.246 47.4688 252.246 50.2812C252.246 51.7135 251.94 52.9635 251.328 54.0312C250.729 55.099 249.824 55.9323 248.613 56.5312C247.402 57.1302 245.911 57.4297 244.141 57.4297C241.966 57.4297 240.124 56.7721 238.613 55.457V56.1992C238.613 56.6419 238.451 56.9544 238.125 57.1367C237.812 57.332 237.246 57.4297 236.426 57.4297C235.592 57.4297 235 57.332 234.648 57.1367C234.297 56.9544 234.121 56.6419 234.121 56.1992V49.6758C234.121 49.2331 234.258 48.9206 234.531 48.7383C234.818 48.543 235.28 48.4453 235.918 48.4453C236.374 48.4453 236.732 48.5039 236.992 48.6211C237.266 48.7383 237.474 48.9401 237.617 49.2266C238.32 50.5677 239.16 51.5768 240.137 52.2539C241.113 52.931 242.253 53.2695 243.555 53.2695C244.701 53.2695 245.573 53.0352 246.172 52.5664C246.771 52.0977 247.07 51.4466 247.07 50.6133C247.07 50.0924 246.934 49.6562 246.66 49.3047C246.4 48.9401 246.016 48.6341 245.508 48.3867C245.091 48.1784 244.629 48.0091 244.121 47.8789C243.626 47.7487 242.891 47.5794 241.914 47.3711C240.794 47.1367 239.87 46.9219 239.141 46.7266C238.411 46.5312 237.728 46.2643 237.09 45.9258C236.1 45.4049 235.326 44.7148 234.766 43.8555C234.206 42.9831 233.926 41.8568 233.926 40.4766C233.926 39.0964 234.245 37.8724 234.883 36.8047C235.521 35.724 236.413 34.8841 237.559 34.2852C238.717 33.6862 240.039 33.3867 241.523 33.3867C242.565 33.3867 243.529 33.556 244.414 33.8945C245.299 34.2331 246.068 34.7148 246.719 35.3398V34.6172C246.719 34.1745 246.875 33.862 247.188 33.6797C247.513 33.4844 248.086 33.3867 248.906 33.3867ZM283.801 33.8164C284.257 33.8164 284.582 33.9141 284.777 34.1094C284.973 34.3047 285.07 34.6302 285.07 35.0859V43.3281C285.07 43.7578 284.888 44.0703 284.523 44.2656C284.172 44.4609 283.625 44.5586 282.883 44.5586C282.167 44.5586 281.665 44.4674 281.379 44.2852C281.105 44.0898 280.969 43.7708 280.969 43.3281V38.0156H277.434V52.9961H281.652C281.965 52.9961 282.206 53.0547 282.375 53.1719C282.544 53.276 282.668 53.4714 282.746 53.7578C282.837 54.0443 282.883 54.4609 282.883 55.0078C282.883 55.5547 282.837 55.9714 282.746 56.2578C282.668 56.5443 282.544 56.7396 282.375 56.8438C282.206 56.9479 281.965 57 281.652 57H268.332C268.02 57 267.779 56.9479 267.609 56.8438C267.44 56.7396 267.31 56.5443 267.219 56.2578C267.141 55.9714 267.102 55.5547 267.102 55.0078C267.102 54.4609 267.141 54.0443 267.219 53.7578C267.31 53.4714 267.44 53.276 267.609 53.1719C267.779 53.0547 268.02 52.9961 268.332 52.9961H272.551V38.0156H269.016V43.3281C269.016 43.7578 268.833 44.0703 268.469 44.2656C268.117 44.4609 267.57 44.5586 266.828 44.5586C266.112 44.5586 265.611 44.4674 265.324 44.2852C265.051 44.0898 264.914 43.7708 264.914 43.3281V35.0859C264.914 34.6302 265.012 34.3047 265.207 34.1094C265.415 33.9141 265.741 33.8164 266.184 33.8164H283.801ZM315.199 33.8164C315.655 33.8164 315.98 33.9141 316.176 34.1094C316.371 34.3047 316.469 34.6302 316.469 35.0859V40.9844C316.469 41.4271 316.28 41.7461 315.902 41.9414C315.525 42.1237 314.919 42.2148 314.086 42.2148C313.279 42.2148 312.725 42.1237 312.426 41.9414C312.126 41.7591 311.977 41.4401 311.977 40.9844V38.0156H304.164V42.957H308.93C309.385 42.957 309.704 43.1068 309.887 43.4062C310.069 43.7057 310.16 44.2591 310.16 45.0664C310.16 45.8737 310.069 46.4271 309.887 46.7266C309.704 47.013 309.385 47.1562 308.93 47.1562H304.164V52.8008H312.172V48.8555C312.172 48.4128 312.361 48.1003 312.738 47.918C313.129 47.7227 313.76 47.625 314.633 47.625C315.492 47.625 316.078 47.7161 316.391 47.8984C316.703 48.0807 316.859 48.3997 316.859 48.8555V55.7305C316.859 56.1732 316.762 56.4987 316.566 56.707C316.371 56.9023 316.046 57 315.59 57H297.387C297.074 57 296.833 56.9479 296.664 56.8438C296.495 56.7396 296.365 56.5443 296.273 56.2578C296.195 55.9714 296.156 55.5547 296.156 55.0078C296.156 54.4609 296.195 54.0443 296.273 53.7578C296.365 53.4714 296.495 53.276 296.664 53.1719C296.833 53.0547 297.074 52.9961 297.387 52.9961H299.281V37.8203H297.387C297.074 37.8203 296.833 37.7682 296.664 37.6641C296.495 37.5599 296.365 37.3646 296.273 37.0781C296.195 36.7917 296.156 36.375 296.156 35.8281C296.156 35.2812 296.195 34.8646 296.273 34.5781C296.365 34.2917 296.495 34.0964 296.664 33.9922C296.833 33.875 297.074 33.8164 297.387 33.8164H315.199ZM339.664 33.8164C342.411 33.8164 344.521 34.4219 345.992 35.6328C347.464 36.8438 348.199 38.6016 348.199 40.9062C348.199 43.9141 346.585 45.8086 343.355 46.5898C344.059 46.8633 344.618 47.2669 345.035 47.8008C345.309 48.1523 345.556 48.5234 345.777 48.9141C346.012 49.2917 346.279 49.7734 346.578 50.3594C346.891 50.9844 347.132 51.4336 347.301 51.707C347.561 52.1367 347.822 52.4622 348.082 52.6836C348.342 52.8919 348.635 52.9961 348.961 52.9961H349.332C349.645 52.9961 349.885 53.0547 350.055 53.1719C350.224 53.276 350.348 53.4714 350.426 53.7578C350.517 54.0443 350.562 54.4609 350.562 55.0078C350.562 55.5547 350.517 55.9714 350.426 56.2578C350.348 56.5443 350.224 56.7396 350.055 56.8438C349.885 56.9479 349.645 57 349.332 57H347.438C346.409 57 345.576 56.7917 344.938 56.375C344.299 55.9583 343.714 55.2617 343.18 54.2852C342.919 53.8294 342.607 53.2044 342.242 52.4102C341.982 51.8112 341.734 51.2969 341.5 50.8672C341.266 50.4245 341.005 49.9948 340.719 49.5781C340.315 49.0182 339.866 48.6146 339.371 48.3672C338.876 48.1198 338.284 47.9961 337.594 47.9961H336.344V52.9961H338.238C338.551 52.9961 338.792 53.0547 338.961 53.1719C339.13 53.276 339.254 53.4714 339.332 53.7578C339.423 54.0443 339.469 54.4609 339.469 55.0078C339.469 55.5547 339.423 55.9714 339.332 56.2578C339.254 56.5443 339.13 56.7396 338.961 56.8438C338.792 56.9479 338.551 57 338.238 57H329.371C329.059 57 328.818 56.9479 328.648 56.8438C328.479 56.7396 328.349 56.5443 328.258 56.2578C328.18 55.9714 328.141 55.5547 328.141 55.0078C328.141 54.4609 328.18 54.0443 328.258 53.7578C328.349 53.4714 328.479 53.276 328.648 53.1719C328.818 53.0547 329.059 52.9961 329.371 52.9961H331.461V37.8203H329.371C329.059 37.8203 328.818 37.7682 328.648 37.6641C328.479 37.5599 328.349 37.3646 328.258 37.0781C328.18 36.7917 328.141 36.375 328.141 35.8281C328.141 35.2812 328.18 34.8646 328.258 34.5781C328.349 34.2917 328.479 34.0964 328.648 33.9922C328.818 33.875 329.059 33.8164 329.371 33.8164H339.664ZM336.344 43.7969H339.254C340.582 43.7969 341.565 43.5625 342.203 43.0938C342.841 42.612 343.16 41.8828 343.16 40.9062C343.16 39.9297 342.841 39.207 342.203 38.7383C341.565 38.2565 340.582 38.0156 339.254 38.0156H336.344V43.7969Z" fill="black"/>
</svg>
